<?xml version="1.0" encoding="utf-8"?>
<!-- Generator: Adobe Illustrator 17.0.0, SVG Export Plug-In . SVG Version: 6.00 Build 0)  -->
<!DOCTYPE svg PUBLIC "-//W3C//DTD SVG 1.1//EN" "http://www.w3.org/Graphics/SVG/1.1/DTD/svg11.dtd">
<svg version="1.1" id="Camada_1" xmlns="http://www.w3.org/2000/svg" xmlns:xlink="http://www.w3.org/1999/xlink" x="0px" y="0px"
	 width="612px" height="792px" viewBox="0 0 612 792" enable-background="new 0 0 612 792" xml:space="preserve">
<g>
	<path fill="none" stroke="#000000" stroke-miterlimit="10" d="M505.39,560.873L505.39,560.873l-389.783-0.061
		c-47.614-3.672-85.252-43.574-85.252-92.167c0-40.086,25.276-75.643,63.158-88.312c0.122-0.061,0.245-0.122,0.367-0.184
		c3.733-1.04,6.671-4.162,7.344-8.201c5.386-32.375,33.476-65.117,67.381-65.117c13.892,0,27.173,4.223,38.495,12.179
		c1.102,1.04,2.448,1.897,4.039,2.448l0,0c5.936,2.203,12.546-0.551,15.178-6.304c23.011-49.511,74.358-84.395,126.072-84.395
		c74.848,0,135.68,60.894,135.68,135.68c0,5.08-0.245,13.036-0.734,20.012c-0.428,6.242,3.917,11.75,10.098,12.791l0,0
		c1.102,0.184,2.142,0.184,3.182,0.122v0.061c44.37,0,81.029,36.659,81.029,81.029C581.645,523.541,547.801,558.731,505.39,560.873z
		"/>
</g>
</svg>
